# xmcd
#
# Track frame offsets:
#	150
#	20483
#	41820
#	55900
#	74818
#	98310
#	120805
#	142345
#	162490
#	179028
#
# Disc length: 2634 seconds
#
# Revision: 0
# Processed by: cddbd v1.5PL3 Copyright (c) Steve Scherf et al.
# Submitted via: audiograbber 1.82.02
#
DISCID=910a480a
DTITLE=Peter Maffay - Lange Schatten - CD 1
DYEAR=1988
DGENRE=Rock
TTITLE0=Wölfe
TTITLE1=Hund Des Krieges
TTITLE2=Wenn Ketten Deine Antwort Sind
TTITLE3=Nie Wieder Sieger Sein
TTITLE4=Weit Von Mir
TTITLE5=Du Bist Nie Der Kassierer
TTITLE6=Unter Sternen
TTITLE7=Spiel Ohne Ziel
TTITLE8=Schiff In Der Nacht
TTITLE9=Viel Zu Spät
EXTD=
EXTT0=
EXTT1=
EXTT2=
EXTT3=
EXTT4=
EXTT5=
EXTT6=
EXTT7=
EXTT8=
EXTT9=
PLAYORDER=
